<?xml version="1.0" encoding="UTF-8" standalone="no"?>
<!-- Created with Inkscape (http://www.inkscape.org/) -->

<svg
   xmlns:dc="http://purl.org/dc/elements/1.1/"
   xmlns:cc="http://creativecommons.org/ns#"
   xmlns:rdf="http://www.w3.org/1999/02/22-rdf-syntax-ns#"
   xmlns:svg="http://www.w3.org/2000/svg"
   xmlns="http://www.w3.org/2000/svg"
   xmlns:xlink="http://www.w3.org/1999/xlink"
   xmlns:sodipodi="http://sodipodi.sourceforge.net/DTD/sodipodi-0.dtd"
   xmlns:inkscape="http://www.inkscape.org/namespaces/inkscape"
   version="1.1"
   id="svg21"
   width="40"
   height="42"
   viewBox="0 0 40 42"
   sodipodi:docname="main-rocket.svg"
   inkscape:version="0.92.1 r15371">
  <metadata
     id="metadata27">
    <rdf:RDF>
      <cc:Work
         rdf:about="">
        <dc:format>image/svg+xml</dc:format>
        <dc:type
           rdf:resource="http://purl.org/dc/dcmitype/StillImage" />
        <dc:title></dc:title>
      </cc:Work>
    </rdf:RDF>
  </metadata>
  <defs
     id="defs25" />
  <sodipodi:namedview
     pagecolor="#ffffff"
     bordercolor="#666666"
     borderopacity="1"
     objecttolerance="10"
     gridtolerance="10"
     guidetolerance="10"
     inkscape:pageopacity="0"
     inkscape:pageshadow="2"
     inkscape:window-width="1920"
     inkscape:window-height="1018"
     id="namedview23"
     showgrid="false"
     inkscape:zoom="5.6190476"
     inkscape:cx="20"
     inkscape:cy="21"
     inkscape:window-x="-8"
     inkscape:window-y="-8"
     inkscape:window-maximized="1"
     inkscape:current-layer="svg21" />
  <image
     sodipodi:absref="D:\OpenServer\domains\rocketprint\img\main-rocket.png"
     xlink:href="main-rocket.png"
     y="0"
     x="0"
     id="image29"
     preserveAspectRatio="none"
     height="42"
     width="40" />
  <g
     id="g3701">
    <path
       style="fill:#fefbf7"
       d="m 0,36.125 c 0,-5.799447 0.0417953,-5.885162 3.25,-6.665196 1.7875,-0.434608 3.5124628,-0.828358 3.8332507,-0.875 0.3207879,-0.04664 2.2034323,1.337734 4.1836543,3.076392 3.447126,3.026617 3.553513,3.31398 2.498968,6.75 L 12.664438,42 H 6.3322188 0 Z m 18.5,4.216153 C 24.1975,37.342803 27,33.922679 27,29.967896 27,27.509656 27.69411,25.6852 29.116396,24.404988 32.525294,21.336606 37.195052,14.034391 38.581803,9.6036987 39.734775,5.9199337 39.873054,7.3675324 39.933104,23.75 L 40,42 27.75,41.959962 C 15.977902,41.921487 15.617037,41.858333 18.5,40.341153 Z m -1.994321,-3.359047 c 0.683162,-2.152453 6.275552,-7.895386 7.744321,-7.952793 0.4125,-0.01612 0.75,0.792246 0.75,1.796373 0,1.974092 -3.09188,5.19722 -6.844628,7.135178 -2.168984,1.120086 -2.292568,1.046763 -1.649693,-0.978758 z M 12.193312,29.699447 9.0833837,26.490816 13.869675,19.995408 C 21.677666,9.3992932 29.988907,3 35.942881,3 c 1.724822,0 1.920008,0.4571054 1.387765,3.25 -1.131327,5.936533 -4.523803,11.17745 -11.714918,18.097967 -9.529479,9.170889 -9.667257,9.225821 -13.422416,5.35148 z m 13.218295,-9.990202 c 1.562286,-2.476738 -1.643966,-5.59122 -3.861419,-3.750898 -1.862414,1.545667 -1.978433,3.213408 -0.337688,4.854153 1.471094,1.471094 2.794591,1.123364 4.199107,-1.103255 z m 4.998657,-5.335993 C 31.124412,12.512212 29.402485,10 27.412739,10 c -2.028103,0 -3.567644,3.445095 -2.165935,4.846804 1.66902,1.66902 4.438754,1.415002 5.16346,-0.473552 z M 34.820137,8.2455292 C 35.217636,5.4462572 32.423202,4.1482265 30.385714,6.1857143 28.384807,8.186622 29.679341,11.187816 32.377278,10.802872 33.698394,10.614374 34.620894,9.6486412 34.820137,8.2455292 Z M 0.021962,14.25 0,0 18.25,0.09018827 C 31.775541,0.15702909 35.630042,0.43072034 33.139461,1.1474236 28.428178,2.5031684 23.250569,6.0180014 18.041792,11.396514 14.608252,14.941942 12.862626,16 10.44678,16 6.7910586,16 4.8861213,17.824858 2.0769473,24.017983 L 0.043924,28.5 Z m 5.1681408,8.5 C 6.6799105,20.044097 8.342058,18.383902 9.7650273,18.180449 12.849582,17.739427 12.56953,18.987384 8.6151297,23.304583 3.990265,28.353758 2.259133,28.073452 5.1901028,22.75 Z"
       id="path3705"
       inkscape:connector-curvature="0" />
    <path
       style="fill:#fe9419"
       d="m 13.387327,39.592901 c 0.332279,-1.323905 0.792554,-3.011405 1.022832,-3.75 0.230279,-0.738596 -1.27152,-2.793218 -3.337332,-4.565827 C 7.607576,28.303648 7.0752554,28.145322 4.1965684,29.231905 2.4804375,29.879673 0.79655519,30.129889 0.45460769,29.787941 -0.32630953,29.007024 3.5262209,20.181001 5.6931825,17.786536 6.5893969,16.79623 8.7045966,16 10.439148,16 12.897339,16 14.703999,14.850036 18.864642,10.637061 24.581379,4.8484179 30.221352,1.5679928 36.405168,0.43481605 L 40.310336,-0.28080119 39.64662,4.561532 C 38.791818,10.797999 35.908726,16.686053 30.953224,22.3158 28.000082,25.670747 27,27.66942 27,30.216359 c 0,3.754057 -3.050793,7.320007 -8.70034,10.169479 -4.478415,2.258787 -5.631549,2.072651 -4.912333,-0.792937 z M 22.75,34.700723 c 2.123504,-1.934135 3.128792,-5.73507 1.5,-5.67141 -1.468769,0.05741 -7.061159,5.80034 -7.744321,7.952793 -0.642875,2.025521 -0.519291,2.098844 1.649693,0.978758 C 19.444917,37.294929 21.5125,35.827866 22.75,34.700723 Z M 25.615728,24.347967 C 32.806843,17.42745 36.199319,12.186533 37.330646,6.25 37.862889,3.4571054 37.667703,3 35.942881,3 29.988907,3 21.677666,9.3992932 13.869675,19.995408 l -4.7862913,6.495408 3.1099283,3.208631 c 3.755159,3.874341 3.892937,3.819409 13.422416,-5.35148 z M 21.2125,20.8125 c -1.640745,-1.640745 -1.524726,-3.308486 0.337688,-4.854153 2.217453,-1.840322 5.423705,1.27416 3.861419,3.750898 -1.404516,2.226619 -2.728013,2.574349 -4.199107,1.103255 z m 4.034304,-5.965696 C 23.845095,13.445095 25.384636,10 27.412739,10 c 1.989746,0 3.711673,2.512212 2.997525,4.373252 -0.724706,1.888554 -3.49444,2.142572 -5.16346,0.473552 z m 4.343729,-5.4714734 c -0.848204,-2.2103862 1.719959,-4.8538973 3.902062,-4.0165456 1.015101,0.3895307 1.524772,1.497811 1.327542,2.8867442 -0.398751,2.8080858 -4.26506,3.6433618 -5.229604,1.1298014 z M 8.6151297,23.304583 C 12.56953,18.987384 12.849582,17.739427 9.7650273,18.180449 8.342058,18.383902 6.6799105,20.044097 5.1901028,22.75 2.259133,28.073452 3.990265,28.353758 8.6151297,23.304583 Z"
       id="path3703"
       inkscape:connector-curvature="0" />
  </g>
</svg>
